<svg xmlns="http://www.w3.org/2000/svg" viewBox="0 0 192 192">
  <defs>
    <linearGradient id="bg" x1="0%" y1="0%" x2="100%" y2="100%">
      <stop offset="0%" style="stop-color:#1e3a8a"/>
      <stop offset="50%" style="stop-color:#1e40af"/>
      <stop offset="100%" style="stop-color:#3b82f6"/>
    </linearGradient>
    <linearGradient id="pallet" x1="0%" y1="0%" x2="0%" y2="100%">
      <stop offset="0%" style="stop-color:#fbbf24"/>
      <stop offset="100%" style="stop-color:#d97706"/>
    </linearGradient>
    <linearGradient id="palletDark" x1="0%" y1="0%" x2="0%" y2="100%">
      <stop offset="0%" style="stop-color:#b45309"/>
      <stop offset="100%" style="stop-color:#92400e"/>
    </linearGradient>
  </defs>
  <rect width="192" height="192" rx="36" fill="url(#bg)"/>
  <g transform="translate(96,115)">
    <rect x="-52" y="-42" width="104" height="12" rx="2" fill="url(#pallet)"/>
    <rect x="-52" y="-27" width="104" height="12" rx="2" fill="url(#pallet)"/>
    <rect x="-52" y="-12" width="104" height="12" rx="2" fill="url(#pallet)"/>
    <rect x="-42" y="2" width="12" height="18" rx="2" fill="url(#palletDark)"/>
    <rect x="-6" y="2" width="12" height="18" rx="2" fill="url(#palletDark)"/>
    <rect x="30" y="2" width="12" height="18" rx="2" fill="url(#palletDark)"/>
    <rect x="-52" y="22" width="104" height="10" rx="2" fill="url(#pallet)" opacity="0.9"/>
    <rect x="-52" y="34" width="104" height="10" rx="2" fill="url(#pallet)" opacity="0.9"/>
  </g>
  <g fill="white" opacity="0.9">
    <path d="M130,48 L148,48 L148,42 L162,52 L148,62 L148,56 L130,56 Z"/>
    <path d="M62,56 L44,56 L44,62 L30,52 L44,42 L44,48 L62,48 Z"/>
  </g>
  <text x="96" y="58" text-anchor="middle" font-family="Arial,Helvetica,sans-serif" font-weight="900" font-size="30" fill="white" letter-spacing="-1">NS</text>
</svg>
